# This file uses centimeters as units for non-parametric coordinates.

mtllib ladder_2.mtl
g default
v -0.827742 0.295854 -2.511522
v -0.827742 0.290388 -0.032799
v -0.827742 3.153817 -2.511522
v -0.827742 1.744073 -0.032799
v -0.206429 3.153817 -2.511522
v -0.206429 1.744073 -0.032799
v -0.206429 0.295854 -2.511522
v -0.206429 0.290388 -0.032799
v -0.827742 3.510818 -2.511522
v -0.827742 2.404341 -0.032799
v -0.206429 2.404341 -0.032799
v -0.206429 3.510818 -2.511522
v -0.827742 2.404349 -1.927286
v -0.827742 3.493686 -2.025082
v -0.206429 3.493686 -2.025082
v -0.206429 2.404348 -1.927286
v -0.206429 0.295854 -2.025082
v -0.827742 0.295854 -2.025082
v -0.827742 2.402031 -1.381751
v -0.827742 3.272962 -1.283955
v -0.206429 3.272962 -1.283955
v -0.206429 2.402031 -1.381751
v -0.206429 0.290388 -1.283955
v -0.827742 0.290388 -1.283955
v -0.827742 2.111270 -0.924815
v -0.827742 3.028963 -0.981118
v -0.206429 3.028963 -0.981118
v -0.206429 2.111270 -0.924815
v -0.206429 0.290388 -0.981118
v -0.827742 0.290388 -0.981118
v -0.827742 2.105419 -0.696946
v -0.827742 2.804704 -0.640643
v -0.206429 2.804704 -0.640643
v -0.206429 2.105419 -0.696946
v -0.206429 0.290388 -0.640643
v -0.827742 0.290388 -0.640643
v -0.803718 1.981402 -2.025082
v -0.827742 2.983312 -2.511522
v -0.206429 2.983312 -2.511522
v -0.182405 1.981402 -2.025082
v -0.827742 2.622911 -1.759862
v -0.827742 3.437308 -1.812420
v -0.206429 3.437308 -1.812420
v -0.206429 2.622911 -1.759862
v -0.827742 2.625926 -1.557006
v -0.827742 3.333002 -1.504448
v -0.206429 3.333002 -1.504448
v -0.206429 2.625926 -1.557006
v -0.803718 1.992305 -1.283955
v -0.182405 1.992305 -1.283955
v -0.206429 2.008415 -0.981118
v -0.827742 2.008415 -0.981118
v -0.827742 2.030997 -0.640643
v -0.206429 2.030997 -0.640643
v -0.206429 1.655202 -0.032799
v -0.827742 1.655202 -0.032799
v -0.827742 2.153857 -0.857195
v -0.827742 2.969855 -0.891379
v -0.206429 2.969855 -0.891379
v -0.206429 2.153857 -0.857195
v -0.827742 2.151465 -0.760710
v -0.827742 2.878183 -0.752200
v -0.206429 2.878183 -0.752200
v -0.206429 2.151465 -0.760710
vt 0.375000 0.000000
vt 0.625000 0.000000
vt 0.375000 0.250000
vt 0.625000 0.250000
vt 0.375000 0.500000
vt 0.625000 0.500000
vt 0.375000 0.750000
vt 0.625000 0.750000
vt 0.375000 1.000000
vt 0.625000 1.000000
vt 0.875000 0.000000
vt 0.875000 0.250000
vt 0.125000 0.000000
vt 0.125000 0.250000
vt 0.375000 0.250000
vt 0.625000 0.250000
vt 0.625000 0.500000
vt 0.375000 0.500000
vt 0.431819 0.250000
vt 0.431819 0.250000
vt 0.431819 0.500000
vt 0.431819 0.500000
vt 0.431819 0.750000
vt 0.431819 0.000000
vt 0.431819 1.000000
vt 0.470961 0.250000
vt 0.470961 0.250000
vt 0.470961 0.500000
vt 0.470961 0.500000
vt 0.470961 0.750000
vt 0.470961 0.000000
vt 0.470961 1.000000
vt 0.514231 0.250000
vt 0.514231 0.250000
vt 0.514231 0.500000
vt 0.514231 0.500000
vt 0.514231 0.750000
vt 0.514231 0.000000
vt 0.514231 1.000000
vt 0.554001 0.250000
vt 0.554001 0.250000
vt 0.554001 0.500000
vt 0.554001 0.500000
vt 0.554001 0.750000
vt 0.554001 0.000000
vt 0.554001 1.000000
vt 0.431819 0.235085
vt 0.375000 0.235085
vt 0.125000 0.235085
vt 0.375000 0.514915
vt 0.431819 0.514915
vt 0.441817 0.250000
vt 0.441817 0.250000
vt 0.441817 0.500000
vt 0.441817 0.500000
vt 0.461050 0.250000
vt 0.461050 0.250000
vt 0.461050 0.500000
vt 0.461050 0.500000
vt 0.470961 0.236497
vt 0.470961 0.513503
vt 0.514231 0.513503
vt 0.514231 0.236497
vt 0.554001 0.234659
vt 0.554001 0.515341
vt 0.625000 0.515341
vt 0.875000 0.234659
vt 0.625000 0.234659
vt 0.524713 0.250000
vt 0.524713 0.250000
vt 0.524713 0.500000
vt 0.524713 0.500000
vt 0.540970 0.250000
vt 0.540970 0.250000
vt 0.540970 0.500000
vt 0.540970 0.500000
vn -0.999525 0.005491 0.030337
vn -0.999525 0.005491 0.030337
vn -0.999594 0.004157 0.028192
vn -0.999776 -0.019076 -0.009188
vn 0.000000 0.999380 0.035197
vn 0.000000 0.994517 0.104573
vn 0.000000 0.994517 0.104573
vn 0.000000 0.999380 0.035197
vn 0.999776 0.019076 0.009188
vn 0.999594 -0.004157 -0.028192
vn 0.999525 -0.005491 -0.030337
vn 0.999525 -0.005491 -0.030337
vn 0.000000 -1.000000 0.000000
vn 0.000000 -1.000000 0.000000
vn 0.000000 -1.000000 0.000000
vn 0.000000 -1.000000 0.000000
vn 0.000000 0.000000 1.000000
vn 0.000000 0.000000 1.000000
vn 0.000000 0.000000 1.000000
vn 0.000000 0.000000 1.000000
vn -0.000000 0.000000 -1.000000
vn -0.000000 0.000000 -1.000000
vn -0.000000 0.000000 -1.000000
vn -0.000000 0.000000 -1.000000
vn -1.000000 0.000000 -0.000000
vn -1.000000 0.000000 -0.000000
vn -1.000000 0.000000 -0.000000
vn -1.000000 0.000000 -0.000000
vn 0.000000 0.000000 1.000000
vn 0.000000 0.000000 1.000000
vn 0.000000 0.000000 1.000000
vn 0.000000 0.000000 1.000000
vn 1.000000 0.000000 0.000000
vn 1.000000 0.000000 0.000000
vn 1.000000 0.000000 0.000000
vn 1.000000 0.000000 0.000000
vn -0.000000 0.000000 -1.000000
vn -0.000000 0.000000 -1.000000
vn -0.000000 0.000000 -1.000000
vn -0.000000 0.000000 -1.000000
vn -1.000000 0.000000 0.000000
vn -1.000000 0.000000 0.000000
vn 0.000000 0.955527 0.294905
vn 0.000000 0.955527 0.294905
vn 1.000000 0.000000 -0.000000
vn 1.000000 0.000000 -0.000000
vn -1.000000 0.000000 -0.000000
vn -1.000000 0.000000 -0.000000
vn -1.000000 0.000000 -0.000000
vn -1.000000 0.000000 0.000000
vn 0.000000 0.864667 0.502346
vn 0.000000 0.864667 0.502346
vn 0.000000 0.791526 0.611136
vn 0.000000 0.791526 0.611136
vn 1.000000 0.000000 0.000000
vn 1.000000 0.000000 -0.000000
vn 1.000000 0.000000 -0.000000
vn 1.000000 0.000000 0.000000
vn 0.999182 -0.007019 0.039820
vn 0.999141 0.002009 0.041404
vn 0.999115 0.004411 0.041824
vn 0.999182 -0.007019 0.039820
vn 0.000000 -1.000000 0.000000
vn 0.000000 -1.000000 0.000000
vn 0.000000 -1.000000 0.000000
vn 0.000000 -1.000000 0.000000
vn -0.999115 -0.004411 -0.041824
vn -0.999141 -0.002009 -0.041403
vn -0.999182 0.007019 -0.039820
vn -0.999182 0.007019 -0.039820
vn -1.000000 0.000000 0.000000
vn -1.000000 0.000000 0.000000
vn 0.000000 0.835122 0.550064
vn 0.000000 0.835122 0.550064
vn 1.000000 0.000000 0.000000
vn 1.000000 0.000000 0.000000
vn -1.000000 0.000000 -0.000000
vn -1.000000 0.000000 0.000000
vn -1.000000 0.000000 0.000000
vn -1.000000 0.000000 -0.000000
vn 0.000000 0.835123 0.550064
vn 0.000000 0.835123 0.550064
vn 0.000000 0.835123 0.550064
vn 0.000000 0.835123 0.550064
vn 1.000000 0.000000 -0.000000
vn 1.000000 0.000000 -0.000000
vn 1.000000 0.000000 0.000000
vn 1.000000 0.000000 -0.000000
vn 1.000000 0.000000 -0.000000
vn 1.000000 0.000000 -0.000000
vn 1.000000 0.000000 -0.000000
vn 1.000000 0.000000 -0.000000
vn 0.000000 -1.000000 0.000000
vn 0.000000 -1.000000 0.000000
vn 0.000000 -1.000000 0.000000
vn 0.000000 -1.000000 0.000000
vn -1.000000 0.000000 -0.000000
vn -1.000000 0.000000 -0.000000
vn -1.000000 0.000000 -0.000000
vn -1.000000 0.000000 -0.000000
vn 0.000000 0.000000 1.000000
vn -0.000000 -0.045294 0.998974
vn -0.000000 -0.047340 0.998879
vn 0.000000 0.000000 1.000000
vn -0.000000 -0.858096 0.513489
vn -0.000000 -0.858096 0.513489
vn -0.000000 -0.608110 0.793853
vn -0.000000 -0.608110 0.793853
vn -0.000000 -0.045171 -0.998979
vn -0.000000 0.000000 -1.000000
vn -0.000000 0.000000 -1.000000
vn -0.000000 -0.047324 -0.998880
vn 0.000000 -0.971289 0.237902
vn 0.000000 -0.971289 0.237902
vn 0.000000 -0.846168 0.532916
vn 0.000000 -0.846168 0.532916
vn 0.000000 0.000000 1.000000
vn 0.000000 -0.030906 0.999522
vn 0.000000 -0.030906 0.999522
vn 0.000000 0.000000 1.000000
vn -0.000000 -0.031006 -0.999519
vn -0.000000 0.000000 -1.000000
vn -0.000000 0.000000 -1.000000
vn -0.000000 -0.031006 -0.999519
vn -0.998802 -0.034758 -0.034444
vn -0.998802 -0.034758 -0.034444
vn -0.000000 0.000000 -1.000000
vn -0.000000 0.000000 -1.000000
vn 0.998802 0.034758 0.034444
vn 0.998802 0.034758 0.034444
vn -0.000000 -0.225283 0.974293
vn -0.000000 -0.225283 0.974293
vn -1.000000 0.000000 0.000000
vn -1.000000 0.000000 0.000000
vn 0.000000 0.954891 0.296958
vn 0.000000 0.954891 0.296958
vn 1.000000 0.000000 -0.000000
vn 1.000000 0.000000 -0.000000
vn -0.000000 -0.863465 -0.504408
vn -0.000000 -0.863465 -0.504408
vn -0.000000 -0.616381 -0.787448
vn -0.000000 -0.616381 -0.787448
vn -0.000000 -0.232165 -0.972676
vn -0.000000 -0.232165 -0.972676
vn 0.997462 0.050790 0.049900
vn 0.997462 0.050790 0.049900
vn 0.000000 -0.480172 0.877175
vn 0.000000 -0.480172 0.877175
vn -0.997462 -0.050790 -0.049900
vn -0.997462 -0.050790 -0.049900
vn -0.000000 -0.603338 -0.797486
vn -0.000000 -0.603338 -0.797486
vn 1.000000 0.000000 -0.000000
vn 1.000000 0.000000 -0.000000
vn 0.000000 0.000000 1.000000
vn 0.000000 0.000000 1.000000
vn -1.000000 0.000000 0.000000
vn -1.000000 0.000000 0.000000
vn -1.000000 0.000000 -0.000000
vn -1.000000 0.000000 -0.000000
vn 0.000000 0.835122 0.550064
vn 0.000000 0.835122 0.550064
vn 1.000000 0.000000 0.000000
vn 1.000000 0.000000 0.000000
vn -0.000000 -0.957227 -0.289339
vn -0.000000 -0.957227 -0.289339
vn -0.000000 -0.810711 -0.585447
vn -0.000000 -0.810711 -0.585447
s 1
g pCube40
usemtl initialShadingGroup
f 1/1/1 18/24/2 37/47/3 38/48/4
s 2
f 9/15/5 14/20/6 15/21/7 12/18/8
s 3
f 39/50/9 40/51/10 17/23/11 7/7/12
s off
f 7/7/13 17/23/14 18/25/15 1/9/16
s 4
f 2/2/17 8/11/18 55/67/19 56/68/20
s 5
f 7/13/21 1/1/22 38/48/23 39/49/24
s 6
f 3/3/25 13/19/26 14/20/27 9/15/28
s off
f 4/4/29 6/6/30 11/17/31 10/16/32
s 7
f 16/22/33 5/5/34 12/18/35 15/21/36
s off
f 5/5/37 3/3/38 9/15/39 12/18/40
s 6
f 13/19/26 41/52/41 42/53/42 14/20/27
s 2
f 15/21/7 14/20/6 42/53/43 43/54/44
s 7
f 44/55/45 16/22/33 15/21/36 43/54/46
s 6
f 19/26/47 25/33/48 26/34/49 20/27/50
s 2
f 21/28/51 20/27/52 26/34/53 27/35/54
s 7
f 28/36/55 22/29/56 21/28/57 27/35/58
s 11
f 23/30/59 50/61/60 51/62/61 29/37/62
s off
f 24/32/63 23/30/64 29/37/65 30/39/66
s 12
f 52/63/67 49/60/68 24/31/69 30/38/70
s 6
f 25/33/48 57/69/71 58/70/72 26/34/49
s 2
f 27/35/54 26/34/53 58/70/73 59/71/74
s 7
f 60/72/75 28/36/55 27/35/58 59/71/76
s 6
f 31/40/77 4/4/78 10/16/79 32/41/80
s 2
f 33/42/81 32/41/82 10/16/83 11/17/84
s 7
f 6/6/85 34/43/86 33/42/87 11/17/88
s 16
f 35/44/89 54/65/90 55/66/91 8/8/92
s off
f 36/46/93 35/44/94 8/8/95 2/10/96
s 17
f 56/68/97 53/64/98 36/45/99 2/2/100
s 18
f 17/23/101 40/51/102 37/47/103 18/24/104
s 19
f 44/55/105 41/52/106 13/19/107 16/22/108
s 20
f 50/61/109 23/30/110 24/31/111 49/60/112
s 21
f 60/72/113 57/69/114 25/33/115 28/36/116
s 22
f 29/37/117 51/62/118 52/63/119 30/38/120
s 23
f 54/65/121 35/44/122 36/45/123 53/64/124
s 1
f 38/48/4 37/47/3 13/19/125 3/3/126
s 5
f 39/49/24 38/48/23 3/3/127 5/14/128
s 3
f 5/5/129 16/22/130 40/51/10 39/50/9
s 18
f 37/47/103 40/51/102 16/22/131 13/19/132
s 6
f 41/52/41 45/56/133 46/57/134 42/53/42
s 2
f 43/54/44 42/53/43 46/57/135 47/58/136
s 7
f 48/59/137 44/55/45 43/54/46 47/58/138
s 19
f 48/59/139 45/56/140 41/52/106 44/55/105
s 6
f 45/56/133 19/26/47 20/27/50 46/57/134
s 2
f 47/58/136 46/57/135 20/27/52 21/28/51
s 7
f 22/29/56 48/59/137 47/58/138 21/28/57
s 19
f 19/26/141 45/56/140 48/59/139 22/29/142
s 20
f 22/29/143 50/61/109 49/60/112 19/26/144
s 11
f 51/62/61 50/61/60 22/29/145 28/36/146
s 22
f 52/63/119 51/62/118 28/36/147 25/33/148
s 12
f 19/26/149 49/60/68 52/63/67 25/33/150
s 23
f 34/43/151 54/65/121 53/64/124 31/40/152
s 16
f 55/66/91 54/65/90 34/43/153 6/6/154
s 4
f 56/68/20 55/67/19 6/12/155 4/4/156
s 17
f 31/40/157 53/64/98 56/68/97 4/4/158
s 6
f 57/69/71 61/73/159 62/74/160 58/70/72
s 2
f 59/71/74 58/70/73 62/74/161 63/75/162
s 7
f 64/76/163 60/72/75 59/71/76 63/75/164
s 21
f 64/76/165 61/73/166 57/69/114 60/72/113
s 6
f 61/73/159 31/40/77 32/41/80 62/74/160
s 2
f 63/75/162 62/74/161 32/41/82 33/42/81
s 7
f 34/43/86 64/76/163 63/75/164 33/42/87
s 21
f 31/40/167 61/73/166 64/76/165 34/43/168
