# This file uses centimeters as units for non-parametric coordinates.

mtllib prop_3.mtl
g default
v 1.255245 0.361414 -0.195235
v 1.345585 0.439369 0.570908
v 1.345585 1.739893 0.570908
v 1.255245 1.741580 -0.195235
v 0.499838 0.361414 -1.503641
v 0.499838 1.741580 -1.503641
v 2.018161 0.361414 -0.195235
v 1.856200 0.439369 1.014783
v 1.856200 1.739893 1.014783
v 2.036286 1.741580 -0.195235
v 1.255246 0.361414 -2.812046
v 1.255246 1.741580 -2.812046
v 2.010654 0.361414 -1.503641
v 1.255245 4.876124 -0.195235
v 0.499838 4.876124 -1.503641
v 2.754112 0.439369 0.496373
v 2.492121 0.583300 0.647634
v 2.492121 0.740192 0.647634
v 2.523124 0.770412 0.629735
v 2.555821 0.778605 0.610857
v 2.586285 0.770412 0.593268
v 2.616735 0.740192 0.575688
v 2.754112 1.739893 0.496373
v 2.616735 0.583300 0.575688
v 2.586285 0.583300 0.593268
v 2.555821 0.583300 0.610857
v 2.523124 0.583300 0.629735
v 2.036286 4.876124 -0.195235
v 2.766062 0.361414 -2.812046
v 1.561896 0.480695 -2.812046
v 1.700448 0.480695 -2.812046
v 1.846574 0.480695 -2.812046
v 1.982725 0.480695 -2.812046
v 2.118804 0.480695 -2.812046
v 2.118804 1.106495 -2.812046
v 2.766062 1.741580 -2.812046
v 1.982725 1.227038 -2.812046
v 1.846574 1.259718 -2.812046
v 1.700448 1.227038 -2.812046
v 1.561896 1.106495 -2.812046
v 1.255246 4.876124 -2.812046
v 1.108905 5.013354 0.058234
v 0.207156 5.013354 -1.503641
v 2.766062 0.361414 -0.195235
v 2.766062 1.741580 -0.195235
v 2.766062 4.876124 -0.195235
v 2.041252 5.013354 0.058234
v 3.521469 0.361414 -1.503641
v 3.521469 1.741580 -1.503641
v 2.766062 4.876124 -2.812046
v 1.108906 5.013354 -3.065516
v 1.108905 5.755563 0.058234
v 0.207156 5.755563 -1.503641
v 3.521469 4.876124 -1.503641
v 2.912403 5.013354 0.058234
v 2.041252 5.755563 0.058234
v 2.912403 5.013354 -3.065515
v 1.108906 5.755563 -3.065516
v 2.010654 5.755564 -1.503640
v 3.814152 5.013354 -1.503641
v 2.912403 5.755563 0.058234
v 2.912403 5.755563 -3.065514
v 3.814152 5.755563 -1.503640
v 1.198811 1.729321 0.606469
v 1.088534 1.731381 -0.328754
v 2.041943 1.731381 -0.328754
v 1.822114 1.729321 1.148302
v 2.918184 1.729321 0.515485
v 2.932772 1.731381 -0.328754
v 1.312935 1.840615 0.578819
v 1.218160 1.842386 -0.224936
v 2.037545 1.842386 -0.224936
v 1.848617 1.840615 1.044484
v 2.790609 1.840615 0.500625
v 2.803144 1.842386 -0.224936
v 1.720317 2.683027 0.111267
v 1.680879 2.683764 -0.223194
v 2.021843 2.683764 -0.223194
v 1.943226 2.683027 0.305040
v 2.335210 2.683027 0.078728
v 2.340426 2.683764 -0.223194
v 2.012102 3.745108 -0.221441
vt 0.416667 0.312500
vt 0.458333 0.312500
vt 0.458333 0.688440
vt 0.416667 0.688440
vt 0.458333 0.312500
vt 0.500000 0.312500
vt 0.500000 0.427426
vt 0.458333 0.427426
vt 0.343750 0.156250
vt 0.421875 0.020934
vt 0.500000 0.150000
vt 0.500000 0.312500
vt 0.500000 0.688440
vt 0.421875 0.979066
vt 0.343750 0.843750
vt 0.500000 0.837500
vt 0.416667 0.312500
vt 0.416667 0.427426
vt 0.421875 0.291566
vt 0.343750 0.156250
vt 0.500000 0.150000
vt 0.500000 0.688440
vt 0.458333 0.688440
vt 0.421875 0.291566
vt 0.500776 0.291566
vt 0.541667 0.312500
vt 0.529509 0.354106
vt 0.529509 0.399458
vt 0.530948 0.408194
vt 0.532465 0.410562
vt 0.533879 0.408194
vt 0.535292 0.399458
vt 0.541667 0.688440
vt 0.535292 0.354106
vt 0.533879 0.354106
vt 0.532465 0.354106
vt 0.530948 0.354106
vt 0.421875 0.708434
vt 0.521540 0.427426
vt 0.521540 0.688440
vt 0.375000 0.312500
vt 0.402455 0.330976
vt 0.401497 0.330976
vt 0.400487 0.330976
vt 0.399546 0.330976
vt 0.398605 0.330976
vt 0.398605 0.344041
vt 0.375000 0.427426
vt 0.399546 0.346557
vt 0.400487 0.347239
vt 0.401497 0.346557
vt 0.402455 0.344041
vt 0.421875 0.020934
vt 0.416667 0.688440
vt 0.343750 0.843750
vt 0.421875 0.708434
vt 0.421875 0.708434
vt 0.343750 0.843750
vt 0.578125 0.291566
vt 0.578125 0.291566
vt 0.583333 0.312500
vt 0.583333 0.688440
vt 0.578125 0.708434
vt 0.541667 0.427426
vt 0.541667 0.688440
vt 0.502651 0.708434
vt 0.502651 0.708434
vt 0.583333 0.312500
vt 0.625000 0.312500
vt 0.625000 0.427426
vt 0.583333 0.427426
vt 0.578125 0.020934
vt 0.375000 0.688440
vt 0.421875 0.979066
vt 0.421875 0.979066
vt 0.421875 0.708434
vt 0.343750 0.843750
vt 0.656250 0.156250
vt 0.656250 0.156250
vt 0.541667 0.312500
vt 0.656250 0.843750
vt 0.583333 0.688440
vt 0.578125 0.708434
vt 0.578125 0.708434
vt 0.502651 0.708433
vt 0.625000 0.688440
vt 0.578125 0.979066
vt 0.578125 0.979066
vt 0.421875 0.979066
vt 0.500000 0.837500
vt 0.656250 0.843750
vt 0.656250 0.843750
vt 0.578125 0.708434
vt 0.578125 0.979066
vt 0.656250 0.843750
vt 0.437196 0.292835
vt 0.375000 0.292310
vt 0.375000 0.458060
vt 0.437196 0.457728
vt 0.502793 0.293389
vt 0.502793 0.457377
vt 0.166940 0.000000
vt 0.166940 0.250000
vt 0.332690 0.250000
vt 0.332690 0.000000
vt 0.563912 0.293904
vt 0.563912 0.457050
vt 0.437196 0.792272
vt 0.375000 0.791940
vt 0.375000 0.957690
vt 0.437196 0.957165
vt 0.625000 0.294420
vt 0.625000 0.456723
vt 0.502793 0.956612
vt 0.502793 0.792623
vt 0.669420 0.000000
vt 0.669420 0.250000
vt 0.831723 0.250000
vt 0.831723 0.000000
vt 0.563912 0.956096
vt 0.563912 0.792950
vt 0.625000 0.955580
vt 0.625000 0.793277
vt 0.421875 0.979066
vt 0.343750 0.843750
vt 0.500000 0.837500
vt 0.421875 0.708434
vt 0.578125 0.708434
vt 0.656250 0.843750
vt 0.421875 0.979066
vt 0.343750 0.843750
vt 0.500000 0.837500
vt 0.421875 0.708434
vt 0.578125 0.708434
vt 0.656250 0.843750
vt 0.421875 0.979066
vt 0.343750 0.843750
vt 0.500000 0.837500
vt 0.421875 0.708434
vt 0.578125 0.708434
vt 0.656250 0.843750
vt 0.486979 0.820156
vn -0.993120 0.000000 0.117104
vn -0.993120 0.000000 0.117104
vn -0.993120 0.000000 0.117104
vn -0.993120 0.000000 0.117104
vn -0.866026 0.000000 0.499999
vn -0.866026 0.000000 0.499999
vn -0.866026 0.000000 0.500000
vn -0.866026 0.000000 0.500000
vn -0.034449 -0.996868 0.071189
vn 0.000000 -0.994863 0.101226
vn 0.007992 -0.996605 0.081942
vn -0.656062 0.000000 0.754707
vn -0.656062 0.000000 0.754707
vn -0.656062 0.000000 0.754707
vn -0.656062 0.000000 0.754707
vn -0.866025 0.000000 -0.500000
vn -0.866025 0.000000 -0.500000
vn -0.866025 0.000000 -0.500000
vn -0.866025 0.000000 -0.500000
vn 0.000000 -1.000000 0.000000
vn 0.000000 -1.000000 0.000000
vn 0.000000 -1.000000 -0.000000
vn -0.866026 0.000000 0.500000
vn -0.866026 0.000000 0.500000
vn 0.001723 -0.997915 0.064521
vn 0.000000 -1.000000 0.000000
vn 0.500000 0.000000 0.866026
vn 0.500000 0.000000 0.866026
vn 0.500000 0.000000 0.866026
vn 0.500000 0.000000 0.866026
vn 0.500000 0.000000 0.866026
vn 0.500000 0.000000 0.866026
vn 0.500000 0.000000 0.866026
vn 0.499999 0.000000 0.866026
vn 0.500000 0.000000 0.866026
vn 0.500000 0.000000 0.866026
vn 0.499998 0.000000 0.866026
vn 0.499998 0.000000 0.866027
vn 0.499998 0.000000 0.866026
vn 0.499998 0.000000 0.866026
vn 0.000000 0.000000 1.000000
vn 0.000000 0.000000 1.000000
vn 0.000000 0.000000 1.000000
vn 0.000000 0.000000 1.000000
vn 0.000000 0.000000 -1.000000
vn 0.000000 -0.000000 -1.000000
vn 0.000000 0.000000 -1.000000
vn 0.000000 0.000000 -1.000000
vn 0.000000 0.000000 -1.000000
vn 0.000000 0.000000 -1.000000
vn 0.000000 0.000000 -1.000000
vn 0.000000 0.000000 -1.000000
vn 0.000000 0.000000 -1.000000
vn 0.000000 -0.000000 -1.000000
vn 0.000000 -0.000000 -1.000000
vn 0.000000 -0.000000 -1.000000
vn 0.000000 -0.000000 -1.000000
vn 0.000000 -0.000000 -1.000000
vn 0.000000 -1.000000 -0.000000
vn -0.866025 0.000000 -0.500000
vn -0.866025 0.000000 -0.500000
vn -0.412320 -0.879388 0.238053
vn -0.412320 -0.879388 0.238053
vn -0.412320 -0.879388 0.238053
vn -0.412320 -0.879388 0.238053
vn 0.030083 -0.996318 0.080288
vn 0.000000 -1.000000 0.000000
vn 0.999851 0.000000 0.017275
vn 0.999851 0.000000 0.017275
vn 0.999851 0.000000 0.017275
vn 0.999851 0.000000 0.017275
vn 0.000000 0.000000 1.000000
vn 0.000000 0.000000 1.000000
vn -0.000000 -0.879387 0.476108
vn -0.000000 -0.879387 0.476107
vn -0.000000 -0.879387 0.476107
vn -0.000000 -0.879387 0.476108
vn 0.866026 0.000000 -0.500000
vn 0.866026 0.000000 -0.500000
vn 0.866026 0.000000 -0.500000
vn 0.866026 0.000000 -0.500000
vn 0.000000 -1.000000 -0.000000
vn 0.000000 0.000000 -1.000000
vn 0.000000 0.000000 -1.000000
vn -0.412320 -0.879388 -0.238052
vn -0.412320 -0.879388 -0.238052
vn -0.412320 -0.879388 -0.238052
vn -0.412320 -0.879388 -0.238052
vn -0.866026 0.000000 0.500000
vn -0.866026 0.000000 0.500000
vn -0.866026 0.000000 0.500000
vn -0.866026 0.000000 0.500000
vn 0.000000 -0.993708 0.112006
vn 0.000000 -1.000000 0.000000
vn 0.866026 0.000000 0.500000
vn 0.866026 0.000000 0.500000
vn 0.866026 0.000000 0.500000
vn 0.866026 0.000000 0.500000
vn 0.866026 0.000000 0.500000
vn 0.866026 0.000000 0.500000
vn -0.000000 -0.879388 0.476106
vn -0.000000 -0.879388 0.476106
vn -0.000000 -0.000000 1.000000
vn -0.000000 -0.000000 1.000000
vn -0.000000 -0.000000 1.000000
vn -0.000000 -0.000000 1.000000
vn 0.866026 0.000000 -0.500000
vn 0.866026 0.000000 -0.500000
vn 0.000000 -0.879388 -0.476105
vn 0.000000 -0.879388 -0.476105
vn 0.000000 -0.879388 -0.476105
vn 0.000000 -0.879388 -0.476105
vn -0.866025 0.000000 -0.500000
vn -0.866025 0.000000 -0.500000
vn -0.866025 0.000000 -0.500000
vn -0.866025 0.000000 -0.500000
vn -0.000000 1.000000 -0.000000
vn -0.000000 1.000000 0.000000
vn -0.000000 1.000000 -0.000000
vn 0.412319 -0.879389 0.238052
vn 0.412319 -0.879389 0.238052
vn 0.412319 -0.879389 0.238052
vn 0.412319 -0.879389 0.238052
vn -0.000000 -0.000000 1.000000
vn -0.000000 -0.000000 1.000000
vn -0.000000 1.000000 0.000000
vn 0.000000 1.000000 0.000000
vn 0.412320 -0.879388 -0.238053
vn 0.412320 -0.879388 -0.238053
vn 0.412320 -0.879388 -0.238053
vn 0.412320 -0.879388 -0.238053
vn 0.000001 0.000000 -1.000000
vn 0.000001 0.000000 -1.000000
vn 0.000001 0.000000 -1.000000
vn 0.000001 0.000000 -1.000000
vn -0.000000 1.000000 -0.000001
vn 0.866026 0.000001 0.500000
vn 0.866026 0.000001 0.500000
vn 0.866026 0.000001 0.500000
vn 0.866026 0.000001 0.500000
vn 0.000000 1.000000 0.000000
vn 0.866025 -0.000001 -0.500000
vn 0.866025 -0.000001 -0.500000
vn 0.866025 -0.000001 -0.500000
vn 0.866025 -0.000001 -0.500000
vn 0.000000 1.000000 -0.000000
vn 0.492956 -0.839356 -0.229077
vn 0.629055 -0.736862 -0.247637
vn 0.629055 -0.736862 -0.247637
vn 0.472689 -0.851775 -0.225933
vn 0.030201 -0.988955 -0.145109
vn 0.015964 -0.989695 -0.142300
vn 0.965702 0.000000 -0.259654
vn 0.965702 0.000000 -0.259654
vn 0.965702 0.000000 -0.259654
vn 0.965702 0.000000 -0.259654
vn -0.468072 -0.882981 -0.035395
vn -0.470680 -0.881619 -0.034757
vn -0.003067 0.999573 -0.029054
vn -0.003056 0.999576 -0.028946
vn -0.003056 0.999576 -0.028946
vn -0.003066 0.999573 -0.029049
vn -0.669945 -0.742175 0.018721
vn -0.669945 -0.742175 0.018721
vn -0.003092 0.999566 -0.029288
vn -0.003093 0.999566 -0.029297
vn -0.989370 0.000000 0.145418
vn -0.989370 0.000000 0.145418
vn -0.989370 0.000000 0.145418
vn -0.989370 0.000000 0.145418
vn -0.003118 0.999559 -0.029537
vn -0.003120 0.999558 -0.029551
vn -0.003134 0.999554 -0.029687
vn -0.003134 0.999554 -0.029687
vn 0.069333 -0.997540 -0.010372
vn 0.069333 -0.997540 -0.010372
vn 0.069333 -0.997540 -0.010372
vn 0.069333 -0.997540 -0.010372
vn 0.000000 -0.997095 0.076163
vn 0.000000 -0.997095 0.076163
vn 0.000000 -0.997095 0.076163
vn 0.000000 -0.997095 0.076163
vn 0.056118 -0.996335 -0.064557
vn 0.056118 -0.996335 -0.064557
vn 0.056118 -0.996335 -0.064557
vn 0.056118 -0.996335 -0.064557
vn -0.053307 -0.994300 -0.092332
vn -0.053307 -0.994300 -0.092332
vn -0.053307 -0.994300 -0.092332
vn -0.053307 -0.994300 -0.092332
vn -0.063885 -0.997951 -0.003539
vn -0.063885 -0.997951 -0.003539
vn -0.063885 -0.997951 -0.003539
vn -0.063885 -0.997951 -0.003539
vn 0.000000 -0.997095 0.076163
vn 0.000000 -0.997095 0.076163
vn 0.000000 -0.997095 0.076163
vn 0.000000 -0.997095 0.076163
vn -0.685495 0.723397 0.082424
vn -0.685495 0.723397 0.082424
vn -0.685495 0.723397 0.082424
vn -0.685495 0.723397 0.082424
vn 0.000000 0.683070 -0.730353
vn 0.000000 0.683070 -0.730353
vn 0.000000 0.683070 -0.730353
vn 0.000000 0.683070 -0.730353
vn -0.497354 0.652149 0.572137
vn -0.497354 0.652149 0.572137
vn -0.497354 0.652149 0.572137
vn -0.497354 0.652149 0.572137
vn 0.411774 0.567246 0.713214
vn 0.411774 0.567246 0.713214
vn 0.411774 0.567246 0.713214
vn 0.411774 0.567246 0.713214
vn 0.656453 0.754252 0.013183
vn 0.656453 0.754252 0.013183
vn 0.656453 0.754252 0.013183
vn 0.656453 0.754252 0.013183
vn 0.000000 0.683070 -0.730353
vn 0.000000 0.683070 -0.730353
vn 0.000000 0.683070 -0.730353
vn 0.000000 0.683070 -0.730353
vn -0.871588 0.479118 0.103829
vn -0.871588 0.479118 0.103829
vn -0.871588 0.479118 0.103829
vn -0.871588 0.479118 0.103829
vn 0.000000 0.002071 -0.999998
vn 0.000000 0.002071 -0.999998
vn 0.000000 0.002071 -0.999998
vn 0.000000 0.002071 -0.999998
vn -0.528343 0.592833 0.607785
vn -0.528343 0.592833 0.607785
vn -0.528343 0.592833 0.607785
vn -0.528343 0.592833 0.607785
vn 0.408842 0.575666 0.708136
vn 0.408843 0.575666 0.708136
vn 0.408842 0.575666 0.708136
vn 0.408842 0.575665 0.708136
vn 0.876131 0.481797 0.016313
vn 0.876131 0.481797 0.016313
vn 0.876131 0.481797 0.016313
vn 0.876131 0.481797 0.016313
vn 0.000000 0.002071 -0.999998
vn 0.000000 0.002071 -0.999998
vn 0.000000 0.002071 -0.999998
vn 0.000000 0.002071 -0.999998
vn -0.948587 0.295847 0.112506
vn -0.948587 0.295847 0.112506
vn -0.948587 0.295847 0.112506
vn 0.000000 0.001652 -0.999999
vn 0.000000 0.001652 -0.999999
vn 0.000000 0.001652 -0.999999
vn -0.605597 0.384610 0.696654
vn -0.605597 0.384610 0.696654
vn -0.605597 0.384610 0.696654
vn 0.464738 0.368881 0.804951
vn 0.464738 0.368881 0.804951
vn 0.464738 0.368881 0.804951
vn 0.955200 0.295461 0.017225
vn 0.955200 0.295461 0.017225
vn 0.955200 0.295461 0.017225
vn 0.000000 0.001652 -0.999999
vn 0.000000 0.001652 -0.999999
vn 0.000000 0.001652 -0.999999
s off
g pCylinder6
usemtl initialShadingGroup
f 1/1/1 2/2/2 3/3/3 4/4/4
s 1
f 5/5/5 1/6/6 4/7/7 6/8/8
s 2
f 2/9/9 1/10/10 7/11/11
s off
f 2/2/12 8/12/13 9/13/14 3/3/15
s 3
f 11/17/16 5/5/17 6/8/18 12/18/19
s 4
f 1/19/20 5/20/21 13/21/22
s 1
f 6/8/8 4/7/7 14/22/23 15/23/24
s 2
f 8/24/25 2/9/9 7/11/11
s 4
f 13/21/22 7/25/26 1/19/20
s 5
f 8/12/27 16/26/28 17/27/29 18/28/30 19/29/31 20/30/32 21/31/33 22/32/34 23/33/35 9/13/36
f 22/32/34 24/34/37 25/35/38 26/36/39 27/37/40 17/27/29 16/26/28 23/33/35
s 6
f 4/7/41 10/39/42 28/40/43 14/22/44
s 7
f 29/41/45 11/17/46 30/42/47 31/43/48 32/44/49 33/45/50 34/46/51 35/47/52 36/48/53
f 35/47/52 37/49/54 38/50/55 39/51/56 40/52/57 30/42/47 11/17/46 12/18/58 36/48/53
s 4
f 5/20/21 11/53/59 13/21/22
s 3
f 12/18/19 6/8/18 15/23/60 41/54/61
s off
f 15/55/62 14/56/63 42/57/64 43/58/65
s 2
f 16/59/66 8/24/25 7/11/11
s 4
f 44/60/67 7/25/26 13/21/22
s off
f 16/26/68 44/61/69 45/62/70 23/33/71
s 6
f 10/39/42 45/64/72 46/65/73 28/40/43
s 8
f 14/56/74 28/66/75 47/67/76 42/57/77
s 9
f 48/68/78 29/69/79 36/70/80 49/71/81
s 4
f 11/53/59 29/72/82 13/21/22
s 7
f 36/48/53 12/18/58 41/54/83 50/73/84
s off
f 41/74/85 15/55/86 43/58/87 51/75/88
f 43/58/89 42/57/90 52/76/91 53/77/92
s 2
f 44/78/93 16/59/66 7/11/11
s 4
f 48/79/94 44/60/67 13/21/22
s 10
f 44/80/95 48/68/96 49/71/97 45/64/98
f 45/64/98 49/71/97 54/82/99 46/65/100
s 8
f 47/67/76 28/66/75 46/83/101 55/84/102
s 11
f 42/57/103 47/67/104 56/85/105 52/76/106
s 4
f 29/72/82 48/79/94 13/21/22
s 9
f 49/71/81 36/70/80 50/86/107 54/82/108
s off
f 50/87/109 41/74/110 51/75/111 57/88/112
f 51/75/113 43/58/114 53/77/115 58/89/116
s 12
f 53/77/117 52/76/118 59/90/119
s off
f 46/83/120 54/91/121 60/92/122 55/84/123
s 11
f 56/85/105 47/67/104 55/84/124 61/93/125
s 12
f 52/76/118 56/85/126 61/93/127 59/90/119
s off
f 54/91/128 50/87/129 57/88/130 60/92/131
f 57/88/132 51/75/133 58/89/134 62/94/135
s 12
f 58/89/136 53/77/117 59/90/119
s off
f 55/84/137 60/92/138 63/95/139 61/93/140
s 12
f 61/93/127 63/95/141 59/90/119
s off
f 60/92/142 57/88/143 62/94/144 63/95/145
s 12
f 62/94/146 58/89/136 59/90/119
f 63/95/141 62/94/146 59/90/119
s 13
f 19/96/147 18/97/148 40/98/149 39/99/150
f 20/100/151 19/96/147 39/99/150 38/101/152
s off
f 30/102/153 40/103/154 18/104/155 17/105/156
s 13
f 21/106/157 20/100/151 38/101/152 37/107/158
s 14
f 31/108/159 30/109/160 17/110/161 27/111/162
s 13
f 22/112/163 21/106/157 37/107/158 35/113/164
s 14
f 27/111/162 26/114/165 32/115/166 31/108/159
s off
f 24/116/167 22/117/168 35/118/169 34/119/170
s 14
f 26/114/165 25/120/171 33/121/172 32/115/166
f 25/120/171 24/122/173 34/123/174 33/121/172
s off
f 4/14/175 3/15/176 64/125/177 65/124/178
f 10/16/179 4/14/180 65/124/181 66/126/182
f 3/15/183 9/38/184 67/127/185 64/125/186
f 9/38/187 23/63/188 68/128/189 67/127/190
f 23/63/191 45/81/192 69/129/193 68/128/194
f 45/81/195 10/16/196 66/126/197 69/129/198
f 65/124/199 64/125/200 70/131/201 71/130/202
f 66/126/203 65/124/204 71/130/205 72/132/206
f 64/125/207 67/127/208 73/133/209 70/131/210
f 67/127/211 68/128/212 74/134/213 73/133/214
f 68/128/215 69/129/216 75/135/217 74/134/218
f 69/129/219 66/126/220 72/132/221 75/135/222
f 71/130/223 70/131/224 76/137/225 77/136/226
f 72/132/227 71/130/228 77/136/229 78/138/230
f 70/131/231 73/133/232 79/139/233 76/137/234
f 73/133/235 74/134/236 80/140/237 79/139/238
f 74/134/239 75/135/240 81/141/241 80/140/242
f 75/135/243 72/132/244 78/138/245 81/141/246
f 77/136/247 76/137/248 82/142/249
f 78/138/250 77/136/251 82/142/252
f 76/137/253 79/139/254 82/142/255
f 79/139/256 80/140/257 82/142/258
f 80/140/259 81/141/260 82/142/261
f 81/141/262 78/138/263 82/142/264
